<svg width="150" height="100" viewBox="0 0 150 100" fill="none" xmlns="http://www.w3.org/2000/svg">
<path d="M34.2763 37.9497V62.0498H41.4166V43.3055L34.2763 37.9497ZM31.4481 40.0642V62.0498H32.9328V38.9368L31.4481 40.0642ZM28.6201 62.0498H30.1046V41.1211L28.6201 42.1779V62.0498ZM25.7919 62.0498H27.2766V43.2354L25.7919 44.3628V62.0498ZM42.7599 48.7315V62.0498H49.9017V54.0869L42.7599 48.7315ZM22.9637 50.8456V62.0498H24.4486V49.7885L22.9637 50.8456ZM20.1357 62.0498H21.6205V51.9028L20.1357 52.9599V62.0498ZM17.3077 62.0498H18.7925V54.0165L17.3077 55.1441V62.0498Z" fill="#EB0029"/>
<path d="M68.2825 51.3388C66.1636 51.3388 64.8201 50.1409 64.8201 47.8155V43.3055H66.5859V47.8155C66.5859 49.0836 67.2231 49.7885 68.3541 49.7885C69.4136 49.7885 70.0507 49.0838 70.0507 47.8155V43.3055H71.8189V47.745C71.8189 50.2114 70.4039 51.3388 68.2825 51.3388ZM77.0493 51.3388C75.8491 51.3388 74.6465 50.9161 73.7277 50.0706L74.718 48.8726C75.4244 49.4362 76.2022 49.7885 77.121 49.7885C77.8273 49.7885 78.2518 49.5067 78.2518 49.0838V49.0133C78.2518 48.5906 77.9704 48.3791 76.6269 48.0268C75.0712 47.6041 74.0094 47.1108 74.0094 45.5607C74.0094 44.0806 75.1402 43.1648 76.7678 43.1648C77.9704 43.1648 78.9583 43.517 79.7362 44.1511L78.8174 45.49C78.1828 44.9967 77.474 44.7149 76.7678 44.7149C76.1307 44.7149 75.7775 44.9967 75.7775 45.4194C75.7775 45.9127 76.1307 46.1243 77.474 46.4765C79.1016 46.8992 80.0202 47.4632 80.0202 48.8726C80.0202 50.493 78.8174 51.3388 77.0493 51.3388ZM87.3719 51.2685V48.0268H84.1195V51.2687H82.3537V43.3058H84.1195V46.4063H87.3719V43.3055H89.14V51.2683L87.3719 51.2685ZM117.774 51.2685L114.028 46.2654V51.2685H112.331V43.3057H113.956L117.705 48.3791V43.3055H119.402V51.2683L117.774 51.2685ZM83.4847 62.0497L81.0103 58.6673L80.0917 59.6539V62.0497H78.3235V54.0869H80.0917V57.6102L83.344 54.0869H85.463L82.2106 57.4695L85.6061 62.0497H83.4847ZM87.5841 62.0497V54.0869H93.5234V55.6372H89.2807V57.2581H93.0295V58.8081H89.2807V60.4994H93.5951V62.0497H87.5841ZM104.552 62.0497H106.249V54.0871H104.552V62.0497ZM108.866 62.0497V54.0869H114.806V55.6372H110.635V57.2581H114.309V58.8081H110.635V60.4994H114.875V62.0497H108.866ZM117.493 62.0497V54.0869H119.258V60.4994H123.219V62.0497H117.493ZM128.45 62.0497H125.338V54.0869H128.45C130.996 54.0869 132.692 55.8487 132.692 58.0331V58.1036C132.692 60.3585 130.996 62.0497 128.45 62.0497ZM130.855 58.1036C130.855 56.6942 129.865 55.7077 128.45 55.7077H127.106V60.4994H128.45C129.865 60.4994 130.855 59.5129 130.855 58.1036ZM59.6589 49.7885C58.1722 49.7885 57.1844 48.6612 57.1844 47.3221V47.2517C57.1844 45.9127 58.103 44.7853 59.5157 44.7853C60.2935 44.7149 61.0024 45.0673 61.4962 45.6309L62.6273 44.292C61.8494 43.5875 60.7899 43.0941 59.5157 43.1648C57.0412 43.1648 55.2756 45.0673 55.3446 47.3221C55.4163 49.6476 57.1844 51.4092 59.6589 51.3388C60.9306 51.3388 62.0617 50.7752 62.768 49.9294L61.5678 48.802C61.1431 49.3658 60.4368 49.7178 59.6589 49.7883V49.7885ZM98.0476 43.3055H99.9565V51.2683H98.2601V46.054L95.9979 49.4364H95.9287L93.6643 46.054V51.2687H92.0392V43.3058H93.8765L95.9979 46.6178L98.0476 43.3055ZM105.261 43.3055L101.866 51.2683H103.705L104.412 49.4362H107.805L108.513 51.2685H110.351L106.958 43.3057L105.261 43.3055ZM105.049 47.8859L106.108 45.3491L107.17 47.8859H105.049ZM71.3224 54.0867L67.9294 62.0497H69.6975L70.4754 60.2881H73.7993L74.5748 62.0497H76.3429L72.9499 54.0869L71.3224 54.0867ZM71.041 58.7378L72.1003 56.1306L73.1623 58.7378H71.041ZM97.8375 55.7077V57.3989H101.584V59.0196H97.8375V62.0497H96.0694V54.0869H102.149V55.7077H97.8375ZM66.0205 54.0867L64.183 59.6539L62.3458 54.0869H60.6467L58.8095 59.6539L56.972 54.0869H55.0631L57.9599 62.0497H59.7281L61.4962 56.6237L63.3334 62.0497H65.0302L67.9294 54.0869L66.0205 54.0867ZM130.571 49.2951L131.49 48.2384L130.43 47.1108L129.581 48.0268L128.591 46.829C129.228 46.4765 129.652 45.7718 129.652 45.0673C129.581 43.9399 128.734 43.1648 127.603 43.1648C127.037 43.1648 126.541 43.3761 126.188 43.7284C125.835 44.0806 125.622 44.5738 125.622 45.1378C125.694 45.7718 126.047 46.2654 126.329 46.6176C125.41 46.9699 124.704 47.9566 124.773 48.9431C124.844 50.2816 125.975 51.4092 127.39 51.4092C128.168 51.4092 129.015 50.9865 129.581 50.3524L130.29 51.2683H132.339L130.571 49.2951ZM128.662 49.2247C128.237 49.7178 127.815 49.9294 127.391 49.9294C126.825 49.9294 126.329 49.5067 126.329 48.8726C126.259 48.52 126.541 48.0268 127.319 47.6744L128.662 49.2247ZM127.672 45.9127C127.46 45.7014 127.178 45.4196 127.107 45.1378C127.107 44.856 127.247 44.5738 127.672 44.5035C128.025 44.5035 128.237 44.7853 128.237 45.1376C128.237 45.4898 127.884 45.7716 127.672 45.9127Z" fill="#717271"/>
</svg>
