<svg width="68" height="68" viewBox="0 0 68 68" fill="none" xmlns="http://www.w3.org/2000/svg">
<rect width="56" height="56" rx="28" fill="#F9D15C"/>
<path d="M41.578 22.7401H35.0726C34.153 22.7401 33.432 23.4924 33.432 24.3807V47.7443C33.432 48.6504 34.1666 49.385 35.0726 49.385C35.9787 49.385 36.7133 48.6504 36.7133 47.7443V39.2276C38.2358 39.2191 40.4638 39.2078 41.5781 39.2078C43.7771 39.2078 45.8623 38.3568 47.4493 36.8115C49.0561 35.247 49.9411 33.1738 49.9411 30.974C49.9411 28.7741 49.0561 26.7009 47.4493 25.1363C45.8622 23.5912 43.7771 22.7401 41.578 22.7401ZM41.578 35.9266C40.4703 35.9266 38.2738 35.9376 36.7491 35.9462C36.7214 30.8364 36.7373 32.5547 36.7182 26.0214H41.578C44.3327 26.0214 46.6597 28.2894 46.6597 30.974C46.6597 33.6586 44.3327 35.9266 41.578 35.9266Z" fill="#222222"/>
<path d="M57.0146 19.0477C52.4699 14.5029 46.4272 12 39.9998 12C33.5724 12 27.5297 14.5029 22.985 19.0477C9.77302 32.2596 16.0482 55.0346 34.3123 59.4475V65.2656C34.3123 66.7734 35.5389 68 37.0466 68H42.9529C44.4606 68 45.6873 66.7734 45.6873 65.2656V59.4475C63.969 55.0303 70.2173 32.2503 57.0146 19.0477ZM42.406 64.7188H37.5935V60.0059C39.1893 60.1643 40.8102 60.1643 42.406 60.0059V64.7188ZM43.7521 56.5062C31.1028 58.8145 19.2185 49.1677 19.2185 36.0625C19.2185 24.6037 28.5409 15.2812 39.9998 15.2812C51.4587 15.2812 60.781 24.6037 60.781 36.0625C60.781 46.094 53.637 54.7024 43.7521 56.5062Z" fill="#222222"/>
</svg>
