<svg width="150" height="100" viewBox="0 0 150 100" fill="none" xmlns="http://www.w3.org/2000/svg">
<path d="M52.7182 76.0923V75.2225H49.5706V69.0516H48.5767V76.0923H52.7182Z" fill="#0E7755"/>
<path d="M114.925 69.8799V76.0923H115.919V69.8799H118.321V69.0516H112.523V69.8799H114.925Z" fill="#0E7755"/>
<path d="M120.35 74.5182C120.35 74.5182 121.096 75.2636 122.131 75.2636C122.794 75.2636 123.332 74.8909 123.332 74.2282C123.332 72.6959 119.936 73.0272 119.936 70.8736C119.936 69.7967 120.889 68.927 122.214 68.927C123.539 68.927 124.202 69.6311 124.202 69.6311L123.746 70.4594C123.746 70.4594 123.084 69.8382 122.214 69.8382C121.469 69.8382 120.93 70.2937 120.93 70.8736C120.93 72.3231 124.326 71.9504 124.326 74.2282C124.326 75.3051 123.498 76.2162 122.09 76.2162C120.599 76.2162 119.771 75.3051 119.771 75.3051L120.35 74.5182Z" fill="#0E7755"/>
<path d="M24.6383 40.9716H17.3077V61.9694H19.7099V53.8934H24.6383C28.5728 53.8934 31.182 51.2842 31.182 47.3911C31.182 43.5394 28.5314 40.9716 24.6383 40.9716ZM19.7099 43.1667H24.3898C27.0819 43.1667 28.7385 44.7819 28.7385 47.3911C28.7385 50.0417 27.0819 51.6983 24.3484 51.6983H19.7099V43.1667Z" fill="#0E7755"/>
<path d="M42.323 40.9716L34.6196 61.9694H37.146L39.5067 55.3843H47.5414L49.9021 61.9694H52.4285L44.7665 40.9716H42.323ZM46.6716 53.3964L40.0865 53.1893L42.9856 46.0244C43.2341 45.4031 43.524 44.492 43.6897 43.8707C43.814 44.4506 44.0624 45.4031 44.2695 46.0244L46.6716 53.3964Z" fill="#0E7755"/>
<path d="M67.9593 52.7335C70.2786 51.988 71.7696 49.793 71.7696 47.0596C71.7696 44.5332 70.5685 42.4624 68.5391 41.5927C67.7108 41.2199 66.7582 41.0128 64.6046 41.0128H58.3508V62.0107H60.753V53.3134H65.6814L70.3614 62.0107H73.0949L68.4563 53.4376C68.2078 53.1063 68.0836 52.8578 67.9593 52.7335ZM69.3674 47.101C69.3674 49.5859 67.8765 51.1183 65.4744 51.1183H60.753V43.1665H64.7289C66.3441 43.1665 67.0067 43.3321 67.5866 43.6635C68.7462 44.2433 69.3674 45.4858 69.3674 47.101Z" fill="#0E7755"/>
<path d="M90.5724 40.9716L85.0227 49.9589H81.7923V40.9716H79.3901V61.9694H81.7923V52.1125H85.0227L90.9037 61.9694H93.72L87.0107 50.9528L93.3059 40.9716H90.5724Z" fill="#0E7755"/>
<path d="M18.3017 72.1165V69.0518H17.3077V76.0924H18.3017V72.9863H21.9463V76.0924H22.9403V69.0518H21.9463V72.1165H18.3017Z" fill="#0E7755"/>
<path d="M28.987 68.927C31.0163 68.927 32.5901 70.5008 32.5901 72.5302C32.5901 74.601 31.0163 76.2162 28.987 76.2162C26.9576 76.2162 25.3838 74.601 25.3838 72.5302C25.3838 70.5008 26.9576 68.927 28.987 68.927ZM28.987 75.3051C30.4365 75.3051 31.5962 74.104 31.5962 72.5302C31.5962 70.9978 30.4365 69.8382 28.987 69.8382C27.5374 69.8382 26.3778 70.9978 26.3778 72.5302C26.3778 74.104 27.5788 75.3051 28.987 75.3051Z" fill="#0E7755"/>
<path d="M36.4419 69.8801V76.0924H37.4359V69.8801H39.8795V69.0518H34.0398V69.8801H36.4419Z" fill="#0E7755"/>
<path d="M46.1331 76.0924V75.2227H42.8613V72.9448H45.3877V72.1165H42.8613V69.8801H45.9675V69.0518H41.8673V76.0924H46.1331Z" fill="#0E7755"/>
<path d="M54.8718 74.5182C54.8718 74.5182 55.6173 75.2636 56.6527 75.2636C57.3154 75.2636 57.8538 74.8909 57.8538 74.2282C57.8538 72.6959 54.4577 73.0272 54.4577 70.8736C54.4577 69.7967 55.4102 68.927 56.7355 68.927C58.0608 68.927 58.7235 69.6311 58.7235 69.6311L58.2679 70.4594C58.2679 70.4594 57.6053 69.8382 56.7355 69.8382C55.99 69.8382 55.4516 70.2937 55.4516 70.8736C55.4516 72.3231 58.8478 71.9504 58.8478 74.2282C58.8478 75.3051 58.0194 76.2162 56.6113 76.2162C55.1203 76.2162 54.292 75.3051 54.292 75.3051L54.8718 74.5182Z" fill="#0E7755"/>
<path d="M66.3027 72.282C66.3027 72.282 65.3915 71.9507 65.3915 70.7082C65.3915 69.5486 66.3027 68.8859 67.5452 68.8859C67.9179 68.8859 68.4149 69.0102 68.4149 69.0102L68.1664 69.7971C68.1664 69.7971 67.8765 69.7556 67.628 69.7556C66.9239 69.7556 66.3855 70.1284 66.3855 70.8325C66.3855 71.288 66.5926 71.9507 67.6694 71.9507H68.9947V70.9981H69.9473V71.9507H70.8999V72.8204H69.9473V73.773C69.9473 75.3468 69.0361 76.2579 67.5037 76.2579C66.0542 76.2579 65.0602 75.3468 65.0602 74.1457C65.0602 73.3174 65.5158 72.5719 66.3027 72.282ZM67.5037 75.3054C68.4149 75.3054 68.9533 74.8084 68.9533 73.6901V72.779H67.5866C66.5926 72.779 66.0128 73.2346 66.0128 74.0215C66.0542 74.7255 66.634 75.3054 67.5037 75.3054Z" fill="#0E7755"/>
<path d="M76.2839 69.0518H78.4376C79.183 69.0518 79.4729 69.0932 79.7629 69.2174C80.4669 69.4659 80.9639 70.2114 80.9639 71.1226C80.9639 72.0337 80.4669 72.7792 79.68 73.0277C79.68 73.0277 79.7629 73.1105 79.8871 73.359L81.3781 76.0924H80.2598L78.7689 73.2762H77.2779V76.0924H76.2839V69.0518ZM78.686 72.4064C79.4729 72.4064 79.9285 71.9094 79.9285 71.1226C79.9285 70.5842 79.7214 70.2528 79.3487 70.0458C79.1416 69.9629 78.9345 69.8801 78.3961 69.8801H77.2779V72.4064H78.686Z" fill="#0E7755"/>
<path d="M87.9219 76.0924V75.2227H84.65V72.9448H87.1764V72.1165H84.65V69.8801H87.7562V69.0518H83.656V76.0924H87.9219Z" fill="#0E7755"/>
<path d="M111.736 58.5731V54.2659L114.925 55.8397V60.1469L111.736 58.5731ZM115.919 55.8397L119.108 54.2659V58.5731L115.919 60.1469V55.8397ZM107.553 56.4609V52.1537L110.742 53.7275V58.0347L107.553 56.4609ZM120.102 53.7689L123.291 52.1951V56.5023L120.102 58.0761V53.7689ZM103.37 54.3901V50.0829L106.559 51.6567V55.9639L103.37 54.3901ZM124.285 51.6567L127.474 50.0829V54.3901L124.285 55.9639V51.6567ZM111.736 53.1477V48.8404L114.925 50.4142V54.7215L111.736 53.1477ZM115.919 50.4556L119.108 48.8818V53.1891L115.919 54.7629V50.4556ZM99.1868 52.2779V48.0121L102.376 49.5859V53.8931L99.1868 52.2779ZM128.509 49.5859L131.698 48.0121V52.3193L128.509 53.8931V49.5859ZM107.553 51.0769V46.7696L110.742 48.3434V52.6507L107.553 51.0769ZM120.102 48.3434L123.291 46.7696V51.0769L120.102 52.6507V48.3434ZM103.37 48.9647V44.6988L106.559 46.2726V50.5799L103.37 48.9647ZM124.285 46.2726L127.474 44.6988V49.0061L124.285 50.5799V46.2726ZM111.736 47.7636V43.4563L114.925 45.0301V49.3374L111.736 47.7636ZM115.919 45.0301L119.108 43.4563V47.7636L115.919 49.3374V45.0301ZM99.1868 46.8939V42.5866L102.376 44.1604V48.4677L99.1868 46.8939ZM128.509 44.2018L131.698 42.628V46.9353L128.509 48.5091V44.2018ZM107.553 45.6514V41.3441L110.742 42.9179V47.2252L107.553 45.6514ZM120.102 42.9594L123.291 41.3855V45.6928L120.102 47.2666V42.9594ZM103.37 43.5806V39.2733L106.559 40.8471V45.1544L103.37 43.5806ZM124.285 40.8471L127.474 39.2733V43.5806L124.285 45.1544V40.8471ZM111.736 42.3381V38.0309L114.925 39.6047V43.9119L111.736 42.3381ZM115.919 39.6461L119.108 38.0723V42.3795L115.919 43.9533V39.6461ZM107.553 40.2673V35.9601L110.742 37.5339V41.8411L107.553 40.2673ZM120.102 37.5339L123.291 35.9601V40.2673L120.102 41.8411V37.5339ZM103.37 38.1551V33.8479L106.559 35.4217V39.7289L103.37 38.1551ZM124.285 35.4631L127.474 33.8893V38.1965L124.285 39.7703V35.4631ZM111.736 36.9126V32.6468L114.925 34.2206V38.5279L111.736 36.9126ZM115.919 34.2206L119.108 32.6468V36.9541L115.919 38.5279V34.2206ZM107.553 34.8418V30.5346L110.742 32.1084V36.4156L107.553 34.8418ZM120.102 32.1498L123.291 30.576V34.8833L120.102 36.4571V32.1498ZM111.736 31.5286V27.2213L114.925 28.7951V33.1024L111.736 31.5286ZM115.919 28.8365L119.108 27.2627V31.57L115.919 33.1438V28.8365ZM112.357 26.4344L115.422 24.902L118.487 26.4344L115.422 27.9668L112.357 26.4344ZM115.422 23.7838L110.742 26.1031V31.0316L106.559 28.9608V34.3863L102.376 32.3155V43.125L98.1929 41.0542V52.982L114.966 61.348V66.4422H115.96V61.2652L132.734 52.8992V40.9714L128.551 43.0422V32.2741L124.368 34.3449V28.9608L120.185 31.0316V26.1031L115.422 23.7838Z" fill="#0E7755"/>
<path d="M90.4069 74.5182C90.4069 74.5182 91.1524 75.2636 92.1878 75.2636C92.8504 75.2636 93.3888 74.8909 93.3888 74.2282C93.3888 72.6959 89.9927 73.0272 89.9927 70.8736C89.9927 69.7967 90.9453 68.927 92.2706 68.927C93.5959 68.927 94.2586 69.6311 94.2586 69.6311L93.803 70.4594C93.803 70.4594 93.1403 69.8382 92.2706 69.8382C91.5251 69.8382 90.9867 70.2937 90.9867 70.8736C90.9867 72.3231 94.3828 71.9504 94.3828 74.2282C94.3828 75.3051 93.5545 76.2162 92.1463 76.2162C90.6554 76.2162 89.827 75.3051 89.827 75.3051L90.4069 74.5182Z" fill="#0E7755"/>
<path d="M99.9738 68.927C102.003 68.927 103.577 70.5008 103.577 72.5302C103.577 74.601 102.003 76.2162 99.9738 76.2162C97.9444 76.2162 96.3706 74.601 96.3706 72.5302C96.3706 70.5008 97.9444 68.927 99.9738 68.927ZM99.9738 75.3051C101.423 75.3051 102.583 74.104 102.583 72.5302C102.583 70.9978 101.423 69.8382 99.9738 69.8382C98.5243 69.8382 97.3646 70.9978 97.3646 72.5302C97.3646 74.104 98.5243 75.3051 99.9738 75.3051Z" fill="#0E7755"/>
<path d="M106.021 69.0518H108.174C108.92 69.0518 109.21 69.0932 109.5 69.2174C110.204 69.4659 110.701 70.2114 110.701 71.1226C110.701 72.0337 110.204 72.7792 109.417 73.0277C109.417 73.0277 109.5 73.1105 109.624 73.359L111.115 76.0924H109.997L108.506 73.2762H107.015V76.0924H106.021V69.0518ZM108.423 72.4064C109.21 72.4064 109.665 71.9094 109.665 71.1226C109.665 70.5842 109.458 70.2528 109.085 70.0458C108.878 69.9629 108.671 69.8801 108.133 69.8801H107.015V72.4064H108.423Z" fill="#0E7755"/>
</svg>
