<svg width="76" height="78" viewBox="0 0 76 78" fill="none" xmlns="http://www.w3.org/2000/svg">
<path d="M38 77.1984C17.1716 77.1984 0.22731 60.0023 0.22731 38.864C0.22731 17.7256 17.1716 0.529541 38 0.529541C58.8285 0.529541 75.7728 17.7256 75.7728 38.864C75.7728 60.0023 58.8285 77.1984 38 77.1984ZM38 2.38443C18.1795 2.38443 2.05544 18.7483 2.05544 38.864C2.05544 58.9796 18.1795 75.3435 38 75.3435C57.8206 75.3435 73.9446 58.9796 73.9446 38.864C73.9446 18.7483 57.8206 2.38443 38 2.38443Z" fill="#DA5D1A"/>
<path d="M46.7812 32.0924C47.71 32.0924 48.463 31.3843 48.463 30.5108C48.463 29.6373 47.71 28.9292 46.7812 28.9292C45.8523 28.9292 45.0993 29.6373 45.0993 30.5108C45.0993 31.3843 45.8523 32.0924 46.7812 32.0924Z" fill="#DA5D1A"/>
<path d="M40.6899 49.5543C40.8849 49.8424 41.1579 49.9822 41.5259 49.9822C41.894 49.9822 42.167 49.8424 42.362 49.5543C42.5704 49.2476 42.6764 48.8074 42.6764 48.2447C42.6764 47.6833 42.5704 47.2431 42.362 46.9364C42.1658 46.6471 41.8928 46.5073 41.5259 46.5073C41.1591 46.5073 40.8861 46.6483 40.6899 46.9364C40.4815 47.2443 40.3754 47.6846 40.3754 48.2447C40.3754 48.8049 40.4815 49.2464 40.6899 49.5543Z" fill="#DA5D1A"/>
<path d="M31.9332 43.6041C32.1294 43.8935 32.4036 44.0332 32.7704 44.0332C33.1373 44.0332 33.4103 43.8922 33.6065 43.6041L33.6077 43.6029C33.8161 43.2986 33.9222 42.8584 33.9222 42.2958C33.9222 41.7344 33.8161 41.2941 33.6077 40.9874C33.4127 40.6993 33.1385 40.5583 32.7717 40.5583C32.4048 40.5583 32.1306 40.6993 31.9344 40.9874C31.7272 41.2954 31.6212 41.7356 31.6212 42.2958C31.6199 42.8597 31.726 43.2986 31.9332 43.6041Z" fill="#DA5D1A"/>
<path d="M29.219 32.0924C30.1479 32.0924 30.9009 31.3843 30.9009 30.5108C30.9009 29.6373 30.1479 28.9292 29.219 28.9292C28.2901 28.9292 27.5371 29.6373 27.5371 30.5108C27.5371 31.3843 28.2901 32.0924 29.219 32.0924Z" fill="#DA5D1A"/>
<path d="M59.9705 57.2905H16.0296L15.3776 63.7579H60.6225L59.9705 57.2905Z" fill="#DA5D1A"/>
<path d="M29.8929 27.6408C31.2384 27.9413 32.2488 29.1111 32.2488 30.5109C32.2488 32.137 30.8887 33.4602 29.219 33.4602C27.5481 33.4602 26.188 32.137 26.188 30.5109C26.188 29.1111 27.1983 27.94 28.545 27.6408V24.1523H19.3642L16.1662 55.9217H59.8328L56.6348 24.1523H47.4539V27.6408C48.8006 27.94 49.811 29.1111 49.811 30.5109C49.811 32.137 48.4509 33.4602 46.7799 33.4602C45.1103 33.4602 43.7501 32.137 43.7501 30.5109C43.7501 29.1111 44.7605 27.9413 46.106 27.6408V24.1523H29.8929V27.6408ZM42.6386 45.188C42.9787 45.3303 43.2821 45.5454 43.5381 45.8286C43.7916 46.1105 43.9902 46.4568 44.1292 46.8575C44.2681 47.2556 44.3388 47.7218 44.3388 48.2437C44.3388 48.7668 44.2681 49.233 44.1292 49.6311C43.9902 50.0306 43.7916 50.378 43.5393 50.6587C43.2821 50.9432 42.9787 51.1583 42.6386 51.3018C42.2974 51.444 41.9245 51.5157 41.5271 51.5157C41.1286 51.5157 40.7544 51.4427 40.4156 51.3018C40.0719 51.1571 39.7697 50.9419 39.515 50.66C39.2615 50.378 39.0628 50.0318 38.9239 49.6311C38.785 49.2367 38.7143 48.7692 38.7143 48.2437C38.7143 47.7194 38.785 47.2532 38.9239 46.8575C39.0616 46.4568 39.2603 46.1105 39.5138 45.8286C39.7685 45.5467 40.0707 45.3315 40.4144 45.1868C41.0933 44.9012 41.9549 44.8999 42.6386 45.188ZM41.4467 39.2747L34.7814 51.2671H32.8509L39.5174 39.2747H41.4467ZM33.8819 39.24C34.2268 39.3847 34.5291 39.5999 34.7814 39.8818C35.0324 40.1588 35.2311 40.5038 35.3724 40.9082L35.3737 40.9094C35.5114 41.3076 35.5809 41.7751 35.5809 42.2969C35.5809 42.8187 35.5114 43.2849 35.3737 43.6844C35.2311 44.0887 35.0324 44.4337 34.7814 44.712C34.5291 44.9927 34.2256 45.2091 33.8807 45.3538C33.5419 45.496 33.1677 45.5689 32.7692 45.5689C32.3719 45.5689 31.9989 45.496 31.6577 45.355C31.314 45.2103 31.0118 44.9939 30.7583 44.712C30.506 44.4337 30.3073 44.0887 30.1672 43.6844C30.0282 43.2825 29.9575 42.8163 29.9575 42.2969C29.9575 41.7775 30.0282 41.3113 30.1672 40.9094C30.3085 40.5038 30.5072 40.1576 30.7607 39.8806C31.013 39.5999 31.3152 39.3835 31.6589 39.24C32.3365 38.9519 33.2055 38.9531 33.8819 39.24Z" fill="#DA5D1A"/>
<path d="M46.1072 24.1893H47.4551V17.6019C47.4551 12.872 43.2139 9.02246 38.0001 9.02246C32.7863 9.02246 28.545 12.8707 28.545 17.6019V24.2264H29.8929V17.6019C29.8929 13.6263 33.5297 10.3914 38.0001 10.3914C42.4704 10.3914 46.1072 13.6263 46.1072 17.6019V24.1893Z" fill="#DA5D1A"/>
</svg>
