<svg width="112" height="17" viewBox="0 0 112 17" fill="none" xmlns="http://www.w3.org/2000/svg">
<path d="M101.87 5.42551H98.2408V7.78313C98.3994 7.56253 98.6337 7.3833 98.944 7.24543C99.2542 7.10066 99.5885 7.02828 99.947 7.02828C100.519 7.02828 100.984 7.14892 101.343 7.39019C101.701 7.62458 101.956 7.93134 102.108 8.31049C102.267 8.68275 102.346 9.07913 102.346 9.49964C102.346 9.99598 102.253 10.4406 102.067 10.8336C101.881 11.2265 101.595 11.5367 101.209 11.7642C100.829 11.9917 100.357 12.1054 99.7919 12.1054C99.068 12.1054 98.4821 11.9193 98.034 11.547C97.5859 11.1748 97.3136 10.6784 97.2171 10.058H98.1374C98.227 10.451 98.4166 10.7577 98.7061 10.9783C98.9957 11.1989 99.361 11.3092 99.8022 11.3092C100.347 11.3092 100.757 11.1472 101.033 10.8232C101.308 10.4923 101.446 10.058 101.446 9.52032C101.446 8.98262 101.308 8.569 101.033 8.27947C100.757 7.98305 100.35 7.83483 99.8125 7.83483C99.4472 7.83483 99.1266 7.92445 98.8509 8.10368C98.582 8.27602 98.3856 8.51385 98.2615 8.81717H97.3722V4.59828H101.87V5.42551ZM104.051 12.1468C103.872 12.1468 103.721 12.0847 103.596 11.9607C103.472 11.8366 103.41 11.6849 103.41 11.5057C103.41 11.3264 103.472 11.1748 103.596 11.0507C103.721 10.9266 103.872 10.8646 104.051 10.8646C104.224 10.8646 104.369 10.9266 104.486 11.0507C104.61 11.1748 104.672 11.3264 104.672 11.5057C104.672 11.6849 104.61 11.8366 104.486 11.9607C104.369 12.0847 104.224 12.1468 104.051 12.1468ZM105.768 8.26913C105.768 7.08343 105.961 6.15968 106.347 5.4979C106.733 4.82922 107.408 4.49487 108.373 4.49487C109.332 4.49487 110.004 4.82922 110.39 5.4979C110.776 6.15968 110.969 7.08343 110.969 8.26913C110.969 9.47551 110.776 10.413 110.39 11.0817C110.004 11.7504 109.332 12.0847 108.373 12.0847C107.408 12.0847 106.733 11.7504 106.347 11.0817C105.961 10.413 105.768 9.47551 105.768 8.26913ZM110.038 8.26913C110.038 7.66939 109.997 7.1627 109.914 6.74909C109.838 6.32858 109.676 5.99079 109.428 5.73573C109.187 5.48066 108.835 5.35313 108.373 5.35313C107.905 5.35313 107.546 5.48066 107.298 5.73573C107.057 5.99079 106.895 6.32858 106.812 6.74909C106.736 7.1627 106.698 7.66939 106.698 8.26913C106.698 8.88956 106.736 9.41002 106.812 9.83053C106.895 10.251 107.057 10.5888 107.298 10.8439C107.546 11.099 107.905 11.2265 108.373 11.2265C108.835 11.2265 109.187 11.099 109.428 10.8439C109.676 10.5888 109.838 10.251 109.914 9.83053C109.997 9.41002 110.038 8.88956 110.038 8.26913Z" fill="#1A0B06"/>
<path d="M6.63539 2.08502L8.68572 6.23878L13.2708 6.90895L9.95308 10.1404L10.7361 14.7055L6.63539 12.549L2.53472 14.7055L3.31769 10.1404L0 6.90895L4.58505 6.23878L6.63539 2.08502Z" fill="#F07F11"/>
<path d="M24.646 2.08502L26.6963 6.23878L31.2814 6.90895L27.9637 10.1404L28.7466 14.7055L24.646 12.549L20.5453 14.7055L21.3283 10.1404L18.0106 6.90895L22.5956 6.23878L24.646 2.08502Z" fill="#F07F11"/>
<path d="M42.6557 2.08502L44.7061 6.23878L49.2911 6.90895L45.9734 10.1404L46.7564 14.7055L42.6557 12.549L38.5551 14.7055L39.338 10.1404L36.0204 6.90895L40.6054 6.23878L42.6557 2.08502Z" fill="#F07F11"/>
<path d="M60.6663 2.08502L62.7166 6.23878L67.3017 6.90895L63.984 10.1404L64.767 14.7055L60.6663 12.549L56.5656 14.7055L57.3486 10.1404L54.0309 6.90895L58.616 6.23878L60.6663 2.08502Z" fill="#F07F11"/>
<path d="M72.2565 6.40931L76.7994 5.50391L78.6334 1.24854L80.8961 5.28955L85.5083 5.7148L82.3639 9.1176L83.3856 13.6367L79.1787 11.6988L75.1987 14.0671L75.738 9.46485L72.2565 6.40931Z" fill="#F07F11"/>
</svg>
